# xmcd
#
# Track frame offsets: 
#        150
#        12142
#        23637
#        36162
#        48237
#        60612
#        73662
#        85550
#        97625
#        109100
#        121330
#        133030
#        147805
#        155980
#        168205
#        174750
#        189357
#        201120
#        213420
#        224970
#
# Disc length: 3188 seconds
#
# Revision: 3
# Processed by: cddbd v1.5.2PL0 Copyright (c) Steve Scherf et al.
# Submitted via: ExactAudioCopy v1.1
#
DISCID=0f0c7214
DTITLE=Gene Autry - The Essential Gene Autry - Disc 2
DYEAR=2005
DGENRE=Country
TTITLE0=Jingle Jangle Jingle (mono)
TTITLE1=Don't Fence Me In (mono)
TTITLE2=Oklahoma Hills (mono)
TTITLE3=Gallivantin' Galveston Gal (mono)
TTITLE4=Have I Told You Lately That I Love You (mono)
TTITLE5=Goodnight Irene (mono)
TTITLE6=Sioux City Sue (mono)
TTITLE7=Home On The Range (mono)
TTITLE8=Roly Poly (mono)
TTITLE9=I Hang My Head And Cry (mono)
TTITLE10=God Bless America (mono)
TTITLE11=Ghost Riders In The Sky (mono)
TTITLE12=On Top Of Old Smokey (mono)
TTITLE13=Buttons And Bows (mono)
TTITLE14=Old Chisholm Trail (mono)
TTITLE15=Old Soldiers Never Die, They Just Fade Away (mono)
TTITLE16=Dixie Cannonball (mono)
TTITLE17=Peter Cottontail (mono)
TTITLE18=Here Comes Santa Claus (Right Down Santa Claus Lane) (mono)
TTITLE19=Rudolph The Red-Nosed Reindeer (mono)
EXTD=Orvon Gene Autry (1907-09-29/1998-10-02): vocals, guitar\n2CD: Co
EXTD=lumbia/Legacy C2K 63779 (2005-01-11), UPC 074646377925.
EXTT0=
EXTT1=
EXTT2=
EXTT3=
EXTT4=
EXTT5=
EXTT6=
EXTT7=
EXTT8=
EXTT9=
EXTT10=
EXTT11=
EXTT12=
EXTT13=
EXTT14=
EXTT15=
EXTT16=
EXTT17=
EXTT18=
EXTT19=
PLAYORDER=
